<?xml version="1.0" encoding="UTF-8" standalone="no"?>
<!-- Created with Inkscape (http://www.inkscape.org/) -->

<svg
   xmlns:dc="http://purl.org/dc/elements/1.1/"
   xmlns:cc="http://creativecommons.org/ns#"
   xmlns:rdf="http://www.w3.org/1999/02/22-rdf-syntax-ns#"
   xmlns:svg="http://www.w3.org/2000/svg"
   xmlns="http://www.w3.org/2000/svg"
   xmlns:sodipodi="http://sodipodi.sourceforge.net/DTD/sodipodi-0.dtd"
   xmlns:inkscape="http://www.inkscape.org/namespaces/inkscape"
   width="560"
   height="560"
   viewBox="0 0 560.00001 560.00001"
   id="svg5517"
   version="1.1"
   inkscape:version="0.91 r13725"
   inkscape:export-filename="/home/maciej/Dokumenty/Bookmarker/resources/icons/toolbar_delete.png"
   inkscape:export-xdpi="4.8200002"
   inkscape:export-ydpi="4.8200002"
   sodipodi:docname="toolbar_delete.svg">
  <defs
     id="defs5519" />
  <sodipodi:namedview
     id="base"
     pagecolor="#ffffff"
     bordercolor="#666666"
     borderopacity="1.0"
     inkscape:pageopacity="0.0"
     inkscape:pageshadow="2"
     inkscape:zoom="0.7"
     inkscape:cx="-21.83727"
     inkscape:cy="390.90715"
     inkscape:document-units="px"
     inkscape:current-layer="layer1"
     showgrid="false"
     units="px"
     inkscape:window-width="1366"
     inkscape:window-height="705"
     inkscape:window-x="0"
     inkscape:window-y="30"
     inkscape:window-maximized="1" />
  <metadata
     id="metadata5522">
    <rdf:RDF>
      <cc:Work
         rdf:about="">
        <dc:format>image/svg+xml</dc:format>
        <dc:type
           rdf:resource="http://purl.org/dc/dcmitype/StillImage" />
        <dc:title></dc:title>
      </cc:Work>
    </rdf:RDF>
  </metadata>
  <g
     inkscape:label="Layer 1"
     inkscape:groupmode="layer"
     id="layer1"
     transform="translate(0,-492.36216)">
    <g
       id="g5558"
       transform="matrix(0.59477157,0,0,0.59477157,113.46396,315.37171)">
      <path
         inkscape:connector-curvature="0"
         id="path5536"
         d="m 271.97692,516.64816 c -44.94093,4.03196 -60.19033,34.12452 -75.375,61.61328 l -113.910156,0 c -38.60358,12.67341 -23.98501,51.52833 0,54.54687 l 394.212886,0 c 33.36272,-7.08704 31.10552,-48.46977 0,-54.54687 l -114.72656,0 c -9.13438,-26.34792 -29.50293,-57.59767 -72.52344,-61.61328 l -17.67773,0 z m 3.125,20.44531 12.14258,0 c 22.69354,5.28533 43.21056,14.52223 48.97656,41.16797 l -112.41992,0 c 7.29105,-20.64643 22.4971,-35.70694 51.30078,-41.16797 z"
         style="fill:#000000;fill-rule:evenodd;stroke:#000000;stroke-width:1px;stroke-linecap:butt;stroke-linejoin:miter;stroke-opacity:1" />
      <path
         inkscape:connector-curvature="0"
         id="path5549"
         d="m 96.927457,666.3962 c -9.08511,0.0425 -7.15196,6.24934 -6.70898,11.6211 l 36.824213,335.416 c 0.4204,3.4153 1.01717,6.7343 7.94531,6.6074 l 290.55469,0 c 4.08226,-0.8775 7.73128,-2.8079 8.52343,-11.6757 l 36.10157,-334.03911 c 0.39395,-4.31207 -0.12533,-8.09953 -7.53321,-7.92969 l -365.707023,0 z m 90.273433,56.48828 c 5.58666,0.0646 11.24009,3.57677 14.6875,11.82422 l 0,217.27735 c -1.44357,14.6723 -27.74187,14.20582 -30.11524,0 l 0,-217.90821 c 2.85039,-6.9111 9.09619,-11.26661 15.42774,-11.19336 z m 92.85742,0 c 5.58666,0.0646 11.24009,3.57677 14.6875,11.82422 l 0,217.27735 c -1.44357,14.6723 -27.74186,14.20582 -30.11523,0 l 0,-217.90821 c 2.85038,-6.9111 9.09618,-11.26661 15.42773,-11.19336 z m 92.85547,0 c 5.58666,0.0646 11.24204,3.57677 14.68945,11.82422 l 0,217.27735 c -1.44357,14.6723 -27.74186,14.20582 -30.11523,0 l 0,-217.90821 c 2.85038,-6.9111 9.09423,-11.26661 15.42578,-11.19336 z"
         style="fill:#000000;fill-rule:evenodd;stroke:#000000;stroke-width:1px;stroke-linecap:butt;stroke-linejoin:miter;stroke-opacity:1" />
    </g>
  </g>
</svg>
