<?xml version="1.0" encoding="UTF-8" standalone="no"?>
<!-- Created with Inkscape (http://www.inkscape.org/) -->

<svg
   xmlns:dc="http://purl.org/dc/elements/1.1/"
   xmlns:cc="http://creativecommons.org/ns#"
   xmlns:rdf="http://www.w3.org/1999/02/22-rdf-syntax-ns#"
   xmlns:svg="http://www.w3.org/2000/svg"
   xmlns="http://www.w3.org/2000/svg"
   xmlns:sodipodi="http://sodipodi.sourceforge.net/DTD/sodipodi-0.dtd"
   xmlns:inkscape="http://www.inkscape.org/namespaces/inkscape"
   width="560"
   height="560"
   viewBox="0 0 560.00001 560.00001"
   id="svg4880"
   version="1.1"
   inkscape:version="0.91 r13725"
   sodipodi:docname="toolbar_settings.svg"
   inkscape:export-filename="/home/maciej/Dokumenty/Bookmarker/resources/icons/toolbar_settings.png"
   inkscape:export-xdpi="4.8200002"
   inkscape:export-ydpi="4.8200002">
  <defs
     id="defs4882" />
  <sodipodi:namedview
     id="base"
     pagecolor="#ffffff"
     bordercolor="#666666"
     borderopacity="1.0"
     inkscape:pageopacity="0.0"
     inkscape:pageshadow="2"
     inkscape:zoom="0.35"
     inkscape:cx="-651.24218"
     inkscape:cy="494.66967"
     inkscape:document-units="px"
     inkscape:current-layer="layer1"
     showgrid="false"
     inkscape:window-width="1366"
     inkscape:window-height="705"
     inkscape:window-x="0"
     inkscape:window-y="30"
     inkscape:window-maximized="1"
     units="px" />
  <metadata
     id="metadata4885">
    <rdf:RDF>
      <cc:Work
         rdf:about="">
        <dc:format>image/svg+xml</dc:format>
        <dc:type
           rdf:resource="http://purl.org/dc/dcmitype/StillImage" />
        <dc:title></dc:title>
      </cc:Work>
    </rdf:RDF>
  </metadata>
  <g
     inkscape:label="Layer 1"
     inkscape:groupmode="layer"
     id="layer1"
     transform="translate(0,-492.36216)">
    <g
       id="g5504"
       transform="matrix(0.60791332,0,0,0.60905033,16.857486,502.56549)">
      <path
         inkscape:connector-curvature="0"
         id="path4899"
         d="M 432.72852,341.97656 A 101.25489,100.63369 0 0 0 331.47266,442.61133 101.25489,100.63369 0 0 0 432.72852,543.24414 101.25489,100.63369 0 0 0 533.98242,442.61133 101.25489,100.63369 0 0 0 432.72852,341.97656 Z m 0,58.85156 a 42.040798,41.782879 0 0 1 42.04101,41.78321 42.040798,41.782879 0 0 1 -42.04101,41.78125 42.040798,41.782879 0 0 1 -42.04102,-41.78125 42.040798,41.782879 0 0 1 42.04102,-41.78321 z"
         style="fill:#000000;stroke:#000000;stroke-width:1.02130711;stroke-opacity:1" />
      <g
         style="fill:#000000;stroke:#000000;stroke-opacity:1"
         id="g5493">
        <path
           inkscape:connector-curvature="0"
           style="fill:#000000;stroke:#000000;stroke-width:3.28917909;stroke-opacity:1"
           d="M 432.72852,265.13477 A 178.57184,177.4763 0 0 0 254.15625,442.61133 178.57184,177.4763 0 0 0 432.72852,620.08594 178.57184,177.4763 0 0 0 611.30078,442.61133 178.57184,177.4763 0 0 0 432.72852,265.13477 Z m 0,42.91211 A 135.39484,134.56419 0 0 1 568.12305,442.61133 135.39484,134.56419 0 0 1 432.72852,577.17383 135.39484,134.56419 0 0 1 297.33398,442.61133 135.39484,134.56419 0 0 1 432.72852,308.04688 Z"
           id="ellipse5443" />
        <path
           style="fill:#000000;fill-rule:evenodd;stroke:#000000;stroke-width:1px;stroke-linecap:butt;stroke-linejoin:miter;stroke-opacity:1"
           d="m 606.07143,398.43363 73.03571,13.03572 0,60.89285 -71.60714,13.21429 3.57143,-30.53572 -0.53571,-31.96428 z"
           id="path5447"
           inkscape:connector-curvature="0" />
        <path
           inkscape:connector-curvature="0"
           id="path5449"
           d="m 586.55519,533.81713 42.4264,60.86169 -43.05775,43.05775 -59.9778,-41.28998 24.11739,-19.06664 22.22336,-22.98096 z"
           style="fill:#000000;fill-rule:evenodd;stroke:#000000;stroke-width:1px;stroke-linecap:butt;stroke-linejoin:miter;stroke-opacity:1" />
        <path
           style="fill:#000000;fill-rule:evenodd;stroke:#000000;stroke-width:1px;stroke-linecap:butt;stroke-linejoin:miter;stroke-opacity:1"
           d="m 476.19916,615.72909 -13.03572,73.03571 -60.89285,0 -13.21428,-71.60713 30.53572,3.57142 31.96428,-0.53571 z"
           id="path5453"
           inkscape:connector-curvature="0" />
        <path
           inkscape:connector-curvature="0"
           id="path5455"
           d="m 341.23014,595.34371 -60.86169,42.4264 -43.05774,-43.05775 41.28998,-59.97779 19.06663,24.11739 22.98097,22.22335 z"
           style="fill:#000000;fill-rule:evenodd;stroke:#000000;stroke-width:1px;stroke-linecap:butt;stroke-linejoin:miter;stroke-opacity:1" />
        <path
           style="fill:#000000;fill-rule:evenodd;stroke:#000000;stroke-width:1px;stroke-linecap:butt;stroke-linejoin:miter;stroke-opacity:1"
           d="m 259.65238,485.3306 -73.03571,-13.03572 1e-5,-60.89284 71.60713,-13.21428 -3.57143,30.53571 0.53572,31.96428 z"
           id="path5457"
           inkscape:connector-curvature="0" />
        <path
           inkscape:connector-curvature="0"
           id="path5459"
           d="m 280.48735,350.84894 -42.4264,-60.8617 43.05774,-43.05773 59.9778,41.28998 -24.11739,19.06663 -22.22335,22.98097 z"
           style="fill:#000000;fill-rule:evenodd;stroke:#000000;stroke-width:1px;stroke-linecap:butt;stroke-linejoin:miter;stroke-opacity:1" />
        <path
           style="fill:#000000;fill-rule:evenodd;stroke:#000000;stroke-width:1px;stroke-linecap:butt;stroke-linejoin:miter;stroke-opacity:1"
           d="m 389.52477,270.22945 13.03572,-73.03571 60.89284,0 13.21428,71.60714 -30.53571,-3.57143 -31.96428,0.53572 z"
           id="path5461"
           inkscape:connector-curvature="0" />
        <path
           inkscape:connector-curvature="0"
           id="path5463"
           d="m 524.49378,289.35214 60.8617,-42.4264 43.05774,43.05774 -41.28999,59.9778 -19.06663,-24.11739 -22.98097,-22.22335 z"
           style="fill:#000000;fill-rule:evenodd;stroke:#000000;stroke-width:1px;stroke-linecap:butt;stroke-linejoin:miter;stroke-opacity:1" />
      </g>
    </g>
  </g>
</svg>
